<svg width="112" height="43" viewBox="0 0 112 43" fill="none" xmlns="http://www.w3.org/2000/svg">
<!-- logo   -->
    <g id="logo">
        <rect x="3.67383" y="4.97852" width="42.2674" height="37.3367" rx="6.96951" fill="#6C5FBC"/>
        <rect x="1.0075" y="1.0075" width="40.2524" height="35.3217" rx="5.96201" fill="#DBD9EE" stroke="#6C5FBC" stroke-width="2.01499"/>
        <path d="M32.624 12.0518L9.72243 11.9505" stroke="#6C5FBC" stroke-width="2.08432" stroke-linecap="round" stroke-linejoin="round"/>
        <path d="M32.6096 16.6368L27.5162 16.6142C25.4095 16.6049 23.7056 14.5428 23.7133 12.0119C23.7211 9.48095 25.4376 7.43398 27.5443 7.4433L32.6377 7.46582" stroke="#6C5FBC" stroke-width="2.08432" stroke-linecap="round" stroke-linejoin="round"/>
        <path d="M17.3611 26.7221L10.7067 26.648C10.1614 26.6456 9.70458 26.1076 9.6942 25.4525L9.64992 23.7254C9.63962 23.0405 10.0999 22.462 10.6699 22.4645L17.25 22.5383L17.3611 26.7221Z" stroke="#6C5FBC" stroke-width="2.08432" stroke-linecap="round" stroke-linejoin="round"/>
        <path d="M27.8134 29.2108L18.4076 29.0948C17.8624 29.0924 17.4055 28.5544 17.3951 27.8993L17.2752 22.5242L32.555 22.7108L32.5653 23.3957C32.6421 26.6417 30.5025 29.2525 27.8134 29.2108Z" stroke="#6C5FBC" stroke-width="2.08432" stroke-linecap="round" stroke-linejoin="round"/>
        <path d="M69.3081 21.6458C69.3081 22.0693 69.2798 22.4505 69.2234 22.7893H60.6472C60.7178 23.6363 61.0142 24.2999 61.5366 24.7798C62.0589 25.2598 62.7012 25.4998 63.4635 25.4998C64.5647 25.4998 65.3482 25.0269 65.8141 24.081H69.0116C68.6728 25.2104 68.0234 26.1421 67.0634 26.8762C66.1035 27.5962 64.9247 27.9562 63.5271 27.9562C62.3977 27.9562 61.3813 27.7092 60.4778 27.2151C59.5884 26.7068 58.8896 25.9939 58.3814 25.0763C57.8873 24.1587 57.6402 23.0999 57.6402 21.8999C57.6402 20.6859 57.8873 19.62 58.3814 18.7024C58.8755 17.7848 59.5672 17.0789 60.4566 16.5848C61.346 16.0907 62.3695 15.8437 63.5271 15.8437C64.6423 15.8437 65.6376 16.0836 66.5129 16.5636C67.4022 17.0436 68.0869 17.7283 68.5669 18.6177C69.061 19.4929 69.3081 20.5023 69.3081 21.6458ZM66.2376 20.7988C66.2235 20.0365 65.9482 19.4294 65.4117 18.9777C64.8753 18.5118 64.2188 18.2789 63.4424 18.2789C62.7083 18.2789 62.0871 18.5047 61.5789 18.9565C61.0848 19.3941 60.7813 20.0082 60.6683 20.7988H66.2376ZM70.7096 21.8576C70.7096 20.6717 70.9426 19.62 71.4084 18.7024C71.8884 17.7848 72.5308 17.0789 73.3354 16.5848C74.1542 16.0907 75.0648 15.8437 76.0671 15.8437C76.9424 15.8437 77.7047 16.0201 78.3541 16.373C79.0176 16.726 79.547 17.1707 79.9423 17.7071V16.0342H82.9281V27.7656H79.9423V26.0504C79.5611 26.601 79.0317 27.0598 78.3541 27.4268C77.6906 27.7797 76.9212 27.9562 76.0459 27.9562C75.0577 27.9562 74.1542 27.7021 73.3354 27.1939C72.5308 26.6857 71.8884 25.9727 71.4084 25.0551C70.9426 24.1234 70.7096 23.0575 70.7096 21.8576ZM79.9423 21.8999C79.9423 21.18 79.8011 20.5659 79.5188 20.0576C79.2364 19.5353 78.8553 19.14 78.3753 18.8718C77.8953 18.5894 77.38 18.4483 76.8294 18.4483C76.2789 18.4483 75.7707 18.5824 75.3048 18.8506C74.8389 19.1188 74.4578 19.5141 74.1613 20.0365C73.8789 20.5447 73.7378 21.1517 73.7378 21.8576C73.7378 22.5634 73.8789 23.1846 74.1613 23.721C74.4578 24.2434 74.8389 24.6457 75.3048 24.9281C75.7848 25.2104 76.293 25.3516 76.8294 25.3516C77.38 25.3516 77.8953 25.2175 78.3753 24.9492C78.8553 24.6669 79.2364 24.2716 79.5188 23.7634C79.8011 23.2411 79.9423 22.6199 79.9423 21.8999ZM89.2752 18.4695V24.1446C89.2752 24.5398 89.3669 24.8292 89.5505 25.0128C89.7481 25.1822 90.0728 25.2669 90.5246 25.2669H91.901V27.7656H90.0375C87.5388 27.7656 86.2894 26.5515 86.2894 24.1234V18.4695H84.8918V16.0342H86.2894V13.1332H89.2752V16.0342H91.901V18.4695H89.2752ZM96.9979 12.0955V27.7656H94.0333V12.0955H96.9979ZM111.15 16.0342L103.887 33.3137H100.732L103.273 27.4692L98.5717 16.0342H101.896L104.924 24.2293L107.995 16.0342H111.15Z" fill="#6C5FBC"/>
    </g>

<!--stars-->
    <g id="greenStar">
        <path d="M29.4585 10.701H18.204L14.7395 0L11.2545 10.701L0 10.6805L9.10199 17.302L5.617 28.003L14.719 21.3815L23.821 28.003L20.3565 17.302L29.4585 10.701Z" fill="#00B67A"/>
    </g>

    <g id="goldStar">
        <path d="M6.95816 0.741543C7.27942 -0.247181 8.6782 -0.247181 8.99945 0.741543L10.1473 4.2742C10.291 4.71637 10.703 5.01575 11.1679 5.01575H14.8824C15.922 5.01575 16.3542 6.34607 15.5132 6.95713L12.5081 9.14044C12.132 9.41371 11.9746 9.89811 12.1183 10.3403L13.2661 13.8729C13.5874 14.8617 12.4557 15.6838 11.6147 15.0728L8.6096 12.8895C8.23347 12.6162 7.72415 12.6162 7.34801 12.8895L4.34295 15.0728C3.5019 15.6838 2.37026 14.8617 2.69151 13.8729L3.83935 10.3403C3.98302 9.89811 3.82563 9.41371 3.44949 9.14044L0.444434 6.95713C-0.396625 6.34607 0.0356224 5.01575 1.07523 5.01575H4.78969C5.25461 5.01575 5.66666 4.71637 5.81033 4.2742L6.95816 0.741543Z" fill="#F59E0B"/>
    </g>

    <g id="purpleStar">
        <path d="M12.1956 15.1993C13.4075 15.8626 14.4733 15.0586 14.2415 13.6517L13.8253 11.1254L15.5882 9.33633C16.5687 8.34132 16.1636 7.03754 14.8067 6.83227L12.3705 6.46369L11.2863 4.17661C10.6791 2.8955 9.36048 2.88172 8.75206 4.16525L7.66253 6.46369L5.22626 6.83227C3.87132 7.03725 3.46296 8.33991 4.44479 9.33633L6.20769 11.1254L5.79152 13.6517C5.56007 15.0566 6.62383 15.8635 7.83744 15.1993L10.0165 14.0065L12.1956 15.1993Z" fill="#6C5FBC"/>
        <mask id="mask0_1_11065" style="mask-type:luminance" maskUnits="userSpaceOnUse" x="3" y="3" width="14" height="13">
            <path d="M12.1956 15.1993C13.4075 15.8626 14.4733 15.0586 14.2415 13.6517L13.8253 11.1254L15.5882 9.33633C16.5687 8.34132 16.1636 7.03754 14.8067 6.83227L12.3705 6.46369L11.2863 4.17661C10.6791 2.8955 9.36048 2.88172 8.75206 4.16525L7.66253 6.46369L5.22626 6.83227C3.87132 7.03725 3.46296 8.33991 4.44479 9.33633L6.20769 11.1254L5.79152 13.6517C5.56007 15.0566 6.62383 15.8635 7.83744 15.1993L10.0165 14.0065L12.1956 15.1993Z" fill="white"/>
        </mask>
        <g mask="url(#mask0_1_11065)">
        </g>
    </g>

<!-- icons for main section   -->
    <g id="mainArrow">
        <path d="M71.6674 10.7111C80.803 24.3855 86.0196 40.0142 80.7461 55.9952C75.9861 70.42 63.0132 78.9641 48.1158 68.2622C41.0635 63.1962 36.4872 52.9723 41.0691 45.3764C46.1738 36.9138 57.5029 44.4112 60.5762 50.1704C67.7546 63.6215 63.1038 81.7597 47.3119 89.9534C28.6107 99.6567 20.562 81.1081 20.7098 81.1037" stroke="#665AB5" stroke-width="2.65" stroke-miterlimit="1.5" stroke-linecap="round" stroke-linejoin="round"/>
        <path d="M91.0256 14.5963C89.1011 14.9712 87.2152 14.5933 85.3117 14.3026C79.0611 13.3488 72.67 10.5339 68.7869 5.89197C71.0236 11.8454 71.6846 20.2492 66.9237 25.2906" stroke="#665AB5" stroke-width="2.65" stroke-miterlimit="1.5" stroke-linecap="round" stroke-linejoin="round"/>
    </g>
    <g id="mainTopIllustration">
        <path d="M3.03562 12.8839C6.63998 9.20371 11.0587 8.59002 15.5406 8.17742C21.1348 7.66242 26.8271 7.46063 31.1569 1.99998" stroke="#685BB8" stroke-width="2.65" stroke-miterlimit="1.5" stroke-linecap="round" stroke-linejoin="round"/>
        <path d="M1.63661 23.2285C4.92103 18.5553 9.69807 15.7937 15.3404 15.1712C18.2926 14.8456 21.2864 15.1697 24.22 14.6123C30.8291 13.356 36.9687 9.34402 39.8474 3.13949" stroke="#685BB8" stroke-width="2.65" stroke-miterlimit="1.5" stroke-linecap="round" stroke-linejoin="round"/>
        <path d="M30.5218 19.2191C28.3334 20.6222 25.9587 21.6906 23.3509 21.9971C18.1575 22.6072 12.7177 21.7974 8.77443 25.9997" stroke="#685BB8" stroke-width="2.65" stroke-miterlimit="1.5" stroke-linecap="round" stroke-linejoin="round"/>
    </g>
    <g id="mainDownIllustration">
        <path d="M27.3376 31.1198C30.2316 24.6503 32.3782 17.9383 34.9719 11.3638" stroke="#685BB8" stroke-width="2.65" stroke-miterlimit="1.5" stroke-linecap="round" stroke-linejoin="round"/>
        <path d="M7.92894 35.0005C15.8316 26.5431 22.9341 17.0933 29.461 7.55682" stroke="#685BB8" stroke-width="2.65" stroke-miterlimit="1.5" stroke-linecap="round" stroke-linejoin="round"/>
        <path d="M1.63457 15.8358C9.15324 13.2755 18.5471 6.43167 25.4724 1.99974" stroke="#685BB8" stroke-width="2.65" stroke-miterlimit="1.5" stroke-linecap="round" stroke-linejoin="round"/>
    </g>

<!-- quality section   -->
    <g id="qualityArrow">
        <path d="M168.51 6.14524C168.736 5.44942 168.356 4.70168 167.66 4.4751C166.964 4.24854 166.216 4.62893 165.99 5.32475L168.51 6.14524ZM134.211 38.1393L134.417 39.4481L134.211 38.1393ZM94.9327 16.2392L96.2576 16.2287L94.9327 16.2392ZM106.699 2.00495L106.79 3.32679L106.699 2.00495ZM119.187 12.3894L117.941 12.8395L119.187 12.3894ZM85.8664 47.5723L86.0118 48.8893L85.8664 47.5723ZM50.0898 25.0035L51.4127 24.9278L50.0898 25.0035ZM58.6008 14.038L58.9272 15.3222L58.6008 14.038ZM32.8261 59.2674L32.9313 57.9466L32.8261 59.2674ZM1.37233 39.7189L1.67289 38.4284C1.20208 38.3187 0.708912 38.4742 0.386083 38.834C0.0632658 39.1938 -0.0379848 39.7009 0.121904 40.1571L1.37233 39.7189ZM12.9722 43.781C13.6849 43.947 14.3973 43.5038 14.5633 42.7911C14.7293 42.0784 14.2861 41.3661 13.5734 41.2001L12.9722 43.781ZM4.36582 52.266C4.60787 52.9566 5.3639 53.3202 6.05449 53.0782C6.74509 52.8362 7.10871 52.0801 6.86667 51.3895L4.36582 52.266ZM167.25 5.735C165.99 5.32475 165.99 5.32442 165.99 5.32421C165.99 5.32428 165.99 5.32417 165.99 5.32431C165.99 5.3246 165.99 5.32531 165.989 5.32646C165.989 5.32876 165.987 5.33277 165.985 5.33847C165.982 5.34989 165.975 5.36806 165.967 5.39279C165.95 5.44226 165.924 5.51796 165.889 5.61827C165.819 5.8189 165.711 6.11784 165.564 6.50209C165.271 7.27077 164.824 8.37969 164.214 9.72495C162.993 12.4182 161.123 16.0443 158.531 19.7794C153.33 27.276 145.345 35.0415 134.004 36.8304L134.417 39.4481C146.782 37.4974 155.317 29.0607 160.708 21.2901C163.413 17.3916 165.358 13.6179 166.628 10.8196C167.263 9.41912 167.73 8.2594 168.041 7.44588C168.196 7.03902 168.311 6.71848 168.389 6.49739C168.428 6.38683 168.457 6.30111 168.477 6.24188C168.487 6.21227 168.495 6.18927 168.5 6.1731C168.503 6.16501 168.505 6.15862 168.507 6.15398C168.508 6.15165 168.508 6.14976 168.509 6.1483C168.509 6.14757 168.509 6.14681 168.509 6.14644C168.509 6.14579 168.51 6.14524 167.25 5.735ZM134.004 36.8304C125.148 38.2275 115.647 36.5955 108.382 32.7941C101.099 28.9829 96.3124 23.1503 96.2576 16.2287L93.6077 16.2497C93.6732 24.5238 99.3941 31.0818 107.154 35.1421C114.932 39.212 125.01 40.9322 134.417 39.4481L134.004 36.8304ZM96.2576 16.2287C96.2416 14.2002 97.0816 11.0373 98.8904 8.32693C100.682 5.64226 103.304 3.56809 106.79 3.32679L106.607 0.683114C102.057 0.998027 98.7776 3.72199 96.6862 6.85591C94.6119 9.96411 93.587 13.6403 93.6077 16.2497L96.2576 16.2287ZM106.79 3.32679C110.087 3.09861 112.447 4.40049 114.211 6.284C116.015 8.20966 117.182 10.7376 117.941 12.8395L120.433 11.9393C119.629 9.71127 118.313 6.78656 116.145 4.47227C113.938 2.11582 110.836 0.390421 106.607 0.683114L106.79 3.32679ZM117.941 12.8395C120.967 21.2178 117.74 28.9549 111.233 34.9948C104.704 41.0555 95.0158 45.2291 85.721 46.2553L86.0118 48.8893C95.8117 47.8074 106.047 43.4237 113.036 36.937C120.047 30.4296 123.933 21.6293 120.433 11.9393L117.941 12.8395ZM85.721 46.2553C77.749 47.1355 69.3253 45.6514 62.824 41.9973C56.3496 38.3582 51.8532 32.6242 51.4127 24.9278L48.767 25.0792C49.2704 33.875 54.4526 40.3319 61.5256 44.3074C68.5717 48.2677 77.5643 49.822 86.0118 48.8893L85.721 46.2553ZM51.4127 24.9278C51.2745 22.5139 51.8549 20.4733 53.06 18.8788C54.2673 17.2812 56.1875 16.0186 58.9272 15.3222L58.2744 12.7539C55.074 13.5674 52.5855 15.1114 50.9458 17.281C49.3038 19.4536 48.5988 22.1407 48.767 25.0792L51.4127 24.9278ZM58.9272 15.3222C61.4325 14.6854 63.4587 15.1941 65.1694 16.4251C66.9338 17.6947 68.426 19.7842 69.6426 22.384L72.0428 21.2608C70.7277 18.4505 68.9935 15.912 66.7172 14.2741C64.3872 12.5975 61.5583 11.9191 58.2744 12.7539L58.9272 15.3222ZM69.6426 22.384C73.7169 31.0908 69.408 40.2171 61.3002 47.2331C53.2116 54.2323 41.8197 58.6546 32.9313 57.9466L32.7209 60.5882C42.4857 61.3661 54.5525 56.5765 63.0342 49.237C71.4965 41.9143 76.8694 31.5752 72.0428 21.2608L69.6426 22.384ZM32.9313 57.9466C26.0317 57.397 18.4366 52.7361 12.4277 48.014C9.45504 45.6779 6.93009 43.3751 5.14816 41.6558C4.25787 40.7968 3.55474 40.0851 3.07579 39.5899C2.83636 39.3423 2.65307 39.1489 2.53054 39.0185C2.46928 38.9533 2.42322 38.9038 2.39295 38.8711C2.3778 38.8548 2.36661 38.8426 2.35943 38.8348C2.35585 38.8309 2.35327 38.8281 2.3517 38.8264C2.35091 38.8256 2.35038 38.825 2.35011 38.8247C2.34997 38.8245 2.34996 38.8245 2.34988 38.8244C2.34994 38.8245 2.35004 38.8246 1.37233 39.7189C0.394615 40.6131 0.39485 40.6134 0.395158 40.6137C0.395344 40.6139 0.395711 40.6143 0.396083 40.6147C0.396828 40.6155 0.397834 40.6166 0.39909 40.618C0.401613 40.6208 0.405156 40.6246 0.409706 40.6295C0.418806 40.6394 0.431948 40.6537 0.449073 40.6722C0.48331 40.7091 0.533445 40.763 0.598903 40.8327C0.729812 40.9721 0.922037 41.1748 1.17093 41.4321C1.66864 41.9468 2.39344 42.6803 3.30813 43.5628C5.1362 45.3267 7.72958 47.6923 10.7903 50.0976C16.8481 54.8582 24.9799 59.9716 32.7209 60.5882L32.9313 57.9466ZM1.07177 41.0093L12.9722 43.781L13.5734 41.2001L1.67289 38.4284L1.07177 41.0093ZM0.121904 40.1571L4.36582 52.266L6.86667 51.3895L2.62275 39.2806L0.121904 40.1571Z" fill="#6C5FBC"/>
    </g>
    <g id="mobileDecoration">
        <path d="M21.2478 6.22889C14.559 9.30376 8.28816 13.0796 1.76205 16.4421" stroke="#6C5FBC" stroke-width="1.88444" stroke-miterlimit="1.5" stroke-linecap="round" stroke-linejoin="round"/>
        <path d="M39.0674 16.4794C27.1042 17.68 15.0871 20.2036 3.46053 23.189" stroke="#6C5FBC" stroke-width="1.88444" stroke-miterlimit="1.5" stroke-linecap="round" stroke-linejoin="round"/>
        <path d="M30.874 35.7609C23.2466 32.6161 11.2224 31.5353 2.77782 30.2592" stroke="#6C5FBC" stroke-width="1.88444" stroke-miterlimit="1.5" stroke-linecap="round" stroke-linejoin="round"/>
    </g>

<!-- buttons   -->
    <g id="arrow">
        <path d="M6.55469 13.5469H22.3588" stroke="white" stroke-width="2.25773" stroke-linecap="round" stroke-linejoin="round"/>
        <path d="M14.4561 5.64453L22.3581 13.5466L14.4561 21.4487" stroke="white" stroke-width="2.25773" stroke-linecap="round" stroke-linejoin="round"/>
    </g>
    <g id="bookMark">
        <path d="M12.6161 0.88436C9.71458 0.397922 6.73665 0.397922 3.83508 0.88436C2.77504 1.06207 1.93085 1.87587 1.71831 2.93105C0.744596 7.76505 0.691467 12.7393 1.56171 17.593L1.91601 19.5691C2.02526 20.1785 2.7681 20.422 3.21691 19.9957L7.49357 15.9328C7.9038 15.5431 8.54743 15.5431 8.95766 15.9328L13.2343 19.9957C13.6831 20.422 14.426 20.1785 14.5352 19.5691L14.8895 17.593C15.7598 12.7393 15.7066 7.76505 14.7329 2.93105C14.5204 1.87587 13.6762 1.06207 12.6161 0.88436Z" fill="#6C5FBC"/>
    </g>
    <g id="heart">
        <path fill-rule="evenodd" clip-rule="evenodd" d="M0.0214844 6.66277C0.0214844 3.27527 2.99334 0.666992 6.48165 0.666992C8.2798 0.666992 9.86206 1.51012 10.9975 2.60107C12.1329 1.51012 13.7152 0.666992 15.5133 0.666992C19.0016 0.666992 21.9735 3.27527 21.9735 6.66277C21.9735 8.98325 20.9839 11.0239 19.6129 12.7488C18.2443 14.4707 16.4541 15.9322 14.74 17.1197C14.0852 17.5732 13.4229 17.9917 12.8167 18.3004C12.2475 18.5903 11.593 18.8558 10.9975 18.8558C10.402 18.8558 9.74747 18.5903 9.17827 18.3004C8.57208 17.9917 7.90974 17.5732 7.25503 17.1197C5.54091 15.9322 3.75066 14.4707 2.38204 12.7488C1.01106 11.0239 0.0214844 8.98325 0.0214844 6.66277ZM6.48165 2.54859C3.87344 2.54859 1.90309 4.4667 1.90309 6.66277C1.90309 8.42332 2.65044 10.0625 3.85505 11.578C5.06202 13.0966 6.68602 14.4365 8.32655 15.573C8.94732 16.003 9.53203 16.369 10.0322 16.6237C10.5693 16.8972 10.8804 16.9742 10.9975 16.9742C11.1146 16.9742 11.4257 16.8972 11.9628 16.6237C12.463 16.369 13.0477 16.003 13.6684 15.573C15.309 14.4365 16.933 13.0966 18.1399 11.578C19.3445 10.0625 20.0919 8.42332 20.0919 6.66277C20.0919 4.4667 18.1215 2.54859 15.5133 2.54859C14.0154 2.54859 12.6167 3.44351 11.7433 4.57937C11.5652 4.81098 11.2896 4.94671 10.9975 4.94671C10.7053 4.94671 10.4298 4.81098 10.2517 4.57937C9.37831 3.44351 7.97959 2.54859 6.48165 2.54859Z" fill="#323142"/>
    </g>
    <g id="x">
        <mask id="path-1-inside-1_1_16655" fill="white">
            <path d="M15.8003 8.96279H9.46077V15.3916H6.9309V8.96279H0.621094V6.67102H6.9309V0.212402H9.46077V6.67102H15.8003V8.96279Z"/>
        </mask>
        <path d="M15.8003 8.96279H9.46077V15.3916H6.9309V8.96279H0.621094V6.67102H6.9309V0.212402H9.46077V6.67102H15.8003V8.96279Z" fill="black"/>
        <path d="M15.8003 8.96279V13.0718H19.9094V8.96279H15.8003ZM9.46077 8.96279V4.85374H5.35172V8.96279H9.46077ZM9.46077 15.3916V19.5007H13.5698V15.3916H9.46077ZM6.9309 15.3916H2.82185V19.5007H6.9309V15.3916ZM6.9309 8.96279H11.0399V4.85374H6.9309V8.96279ZM0.621094 8.96279H-3.48796V13.0718H0.621094V8.96279ZM0.621094 6.67102V2.56197H-3.48796V6.67102H0.621094ZM6.9309 6.67102V10.7801H11.0399V6.67102H6.9309ZM6.9309 0.212402V-3.89665H2.82185V0.212402H6.9309ZM9.46077 0.212402H13.5698V-3.89665H9.46077V0.212402ZM9.46077 6.67102H5.35172V10.7801H9.46077V6.67102ZM15.8003 6.67102H19.9094V2.56197H15.8003V6.67102ZM15.8003 4.85374H9.46077V13.0718H15.8003V4.85374ZM5.35172 8.96279V15.3916H13.5698V8.96279H5.35172ZM9.46077 11.2826H6.9309V19.5007H9.46077V11.2826ZM11.0399 15.3916V8.96279H2.82185V15.3916H11.0399ZM6.9309 4.85374H0.621094V13.0718H6.9309V4.85374ZM4.73014 8.96279V6.67102H-3.48796V8.96279H4.73014ZM0.621094 10.7801H6.9309V2.56197H0.621094V10.7801ZM11.0399 6.67102V0.212402H2.82185V6.67102H11.0399ZM6.9309 4.32145H9.46077V-3.89665H6.9309V4.32145ZM5.35172 0.212402V6.67102H13.5698V0.212402H5.35172ZM9.46077 10.7801H15.8003V2.56197H9.46077V10.7801ZM11.6913 6.67102V8.96279H19.9094V6.67102H11.6913Z" fill="white" mask="url(#path-1-inside-1_1_16655)"/>
    </g>

<!--social links-->
    <g id="instagram">
        <path fill-rule="evenodd" clip-rule="evenodd" d="M10.7721 0C12.1916 0.0506994 13.6618 0.0506994 15.0812 0.101392C16.3486 0.152085 17.5146 0.354867 18.6299 1.0139C20.0494 1.87572 20.9112 3.14309 21.2154 4.76533C21.3674 5.72853 21.4181 6.74243 21.4688 7.70564C21.5195 9.83483 21.4688 11.964 21.4688 14.0932C21.4688 15.2085 21.4181 16.3238 21.0633 17.3884C20.3535 19.4669 18.8834 20.7342 16.7542 21.1398C15.791 21.3426 14.7771 21.3426 13.8139 21.3933C11.6846 21.444 9.60615 21.3933 7.47694 21.3933C6.36165 21.3933 5.24635 21.3426 4.18176 20.9877C2.10325 20.278 0.835867 18.8078 0.430303 16.6786C0.227525 15.7154 0.227525 14.7015 0.176829 13.7383C0.126131 11.6091 0.176829 9.47996 0.176829 7.35077C0.176829 6.23549 0.227525 5.1202 0.582391 4.05559C1.29213 1.9771 2.76229 0.709734 4.89148 0.304173C5.8547 0.101399 6.8686 0.101399 7.83181 0.0506994C8.79502 0 9.75823 0 10.7721 0ZM19.5426 10.4939C19.4919 10.4939 19.5426 10.4939 19.5426 10.4939C19.4919 9.6321 19.4919 8.82097 19.4919 7.95916C19.4919 7.14805 19.4412 6.33692 19.3398 5.52581C19.137 3.70078 18.0724 2.4841 16.2981 2.12924C15.3855 1.92646 14.3716 1.92646 13.4591 1.92646C11.6341 1.87577 9.85976 1.87577 8.03473 1.92646C7.12222 1.92646 6.2097 1.97715 5.34788 2.12924C3.82702 2.38271 2.76243 3.24453 2.30617 4.76538C2.15408 5.27233 2.10339 5.77928 2.05269 6.28623C2.002 8.21264 2.002 10.139 2.002 12.0655C2.002 13.2821 2.05269 14.5495 2.15408 15.7662C2.30617 17.5912 3.42146 18.8586 5.2465 19.1627C6.159 19.3148 7.12222 19.3655 8.08543 19.3655C9.85976 19.4162 11.6341 19.3655 13.4591 19.3655C14.2703 19.3655 15.0814 19.3148 15.8925 19.2134C16.6529 19.1627 17.3627 18.9093 17.971 18.4023C18.9849 17.5912 19.3398 16.5266 19.3905 15.3099C19.4919 13.7891 19.4919 12.1668 19.5426 10.4939Z" fill="#081420"/>
        <path fill-rule="evenodd" clip-rule="evenodd" d="M16.2471 10.6962C16.2471 13.7379 13.8137 16.1712 10.772 16.1712C7.73025 16.1712 5.29688 13.7379 5.29688 10.6455C5.29688 7.65453 7.78094 5.22119 10.8227 5.22119C13.8137 5.22119 16.2471 7.65453 16.2471 10.6962ZM10.7719 14.2448C12.6983 14.2448 14.3205 12.6226 14.3205 10.6962C14.3205 8.76976 12.6983 7.14752 10.7719 7.14752C8.79474 7.14752 7.22318 8.76976 7.22318 10.6962C7.17248 12.6226 8.79474 14.2448 10.7719 14.2448Z" fill="#081420"/>
        <path d="M17.7184 4.96758C17.7184 5.67731 17.1607 6.28566 16.451 6.28566C15.7413 6.28566 15.1329 5.67731 15.1836 4.96758C15.1836 4.25785 15.7413 3.7002 16.451 3.7002C17.1607 3.7002 17.7184 4.25784 17.7184 4.96758Z" fill="#081420"/>
    </g>
    <g id="linkedin">
        <path fill-rule="evenodd" clip-rule="evenodd" d="M21.6325 12.4811V20.3602H17.0315V12.9987C17.0315 11.1583 16.3989 9.89304 14.731 9.89304C13.4658 9.89304 12.7181 10.7557 12.373 11.5609C12.258 11.8484 12.2005 12.251 12.2005 12.6536V20.3602H7.59952C7.59952 20.3602 7.65703 7.88013 7.59952 6.61487H12.2005V8.57027C12.2005 8.57027 12.2005 8.62777 12.143 8.62777H12.2005V8.57027C12.8331 7.65008 13.8684 6.26979 16.3414 6.26979C19.332 6.26979 21.6325 8.28271 21.6325 12.4811ZM2.88298 0.000976562C1.33014 0.000976562 0.294922 1.03619 0.294922 2.35897C0.294922 3.68174 1.27263 4.71697 2.82546 4.71697H2.88298C4.49333 4.71697 5.47103 3.68175 5.47103 2.35897C5.41352 1.03619 4.43581 0.000976562 2.88298 0.000976562ZM0.525568 20.3602H5.06905V6.61489H0.525568V20.3602Z" fill="#081420"/>
    </g>
    <g id="facebook">
        <path fill-rule="evenodd" clip-rule="evenodd" d="M9.95256 10.6695H6.97166V21.338H2.52644V12.415V10.6695H0.43457V6.90414H2.52644V4.4462C2.52644 2.72041 3.36319 0.000976562 6.97166 0.000976562H10.2663V3.66174H7.913C7.54692 3.66174 6.97166 3.87094 6.97166 4.70768V6.90414H10.3186L9.95256 10.6695Z" fill="#081420"/>
    </g>
    <g id="twitter">
        <path fill-rule="evenodd" clip-rule="evenodd" d="M21.6154 2.82596C20.8121 3.1774 20.0088 3.42842 19.1052 3.52883C20.0088 2.97658 20.7117 2.1231 21.0129 1.11901C20.1595 1.62106 19.2056 1.97249 18.2517 2.1733C17.4484 1.31982 16.2937 0.767578 15.0386 0.767578C12.6287 0.767578 10.6707 2.72555 10.6707 5.13537C10.6707 5.48681 10.7209 5.83823 10.7711 6.13947C7.10619 5.93865 3.89307 4.23169 1.73426 1.57085C1.33262 2.22351 1.1318 2.97658 1.1318 3.77985C1.1318 5.28599 1.88488 6.64151 3.08979 7.44478C2.38692 7.44478 1.68406 7.24397 1.0816 6.89253V6.94273C1.0816 9.05133 2.58774 10.8587 4.59594 11.2603C4.2445 11.3607 3.84287 11.4109 3.44122 11.4109C3.14 11.4109 2.88897 11.3607 2.63795 11.3105C3.1902 13.0677 4.79676 14.3228 6.75475 14.373C5.2486 15.5277 3.39102 16.2306 1.33262 16.2306C0.981189 16.2306 0.629757 16.2306 0.27832 16.1804C2.23631 17.4355 4.49553 18.1383 7.00577 18.1383C15.0888 18.1383 19.4566 11.4611 19.4566 5.68762C19.4566 5.48681 19.4566 5.28599 19.4566 5.13537C20.3101 4.48272 21.0631 3.67944 21.6154 2.82596Z" fill="#6C5FBC"/>
    </g>

<!--others -->
    <g id="wallet">
        <path d="M13.3524 2.77494L13.321 2.84823L10.2845 9.89494H7.30039C6.58839 9.89494 5.9078 10.0415 5.29004 10.3033L7.12239 5.92659L7.16427 5.82188L7.23757 5.65435C7.25851 5.59153 7.27945 5.52871 7.31086 5.47635C8.68251 2.30376 10.2322 1.58129 13.3524 2.77494Z" stroke="#936DFF" stroke-width="1.57059" stroke-linecap="round" stroke-linejoin="round"/>
        <path d="M18.9957 10.1043C18.5245 9.95773 18.0219 9.8949 17.5194 9.8949H10.2842L13.3206 2.8482L13.3521 2.7749C13.5091 2.82726 13.6557 2.90055 13.8128 2.96337L16.1268 3.93714C17.4147 4.47114 18.3151 5.02608 18.8596 5.6962C18.9643 5.82184 19.0481 5.93702 19.1214 6.07314C19.2156 6.21973 19.2889 6.36631 19.3308 6.52337C19.3727 6.61761 19.4041 6.71184 19.425 6.79561C19.7077 7.67514 19.5402 8.75361 18.9957 10.1043Z" stroke="#936DFF" stroke-width="1.57059" stroke-linecap="round" stroke-linejoin="round"/>
        <path d="M22.6303 15.0052V17.0469C22.6303 17.2563 22.6198 17.4657 22.6093 17.6752C22.4104 21.3294 20.3686 23.1722 16.4945 23.1722H8.32744C8.07615 23.1722 7.82485 23.1513 7.58403 23.1199C4.25438 22.9 2.47438 21.12 2.2545 17.7903C2.22309 17.5495 2.20215 17.2982 2.20215 17.0469V15.0052C2.20215 12.9006 3.47956 11.0892 5.30144 10.3039C5.92968 10.0421 6.5998 9.89551 7.3118 9.89551H17.5311C18.0441 9.89551 18.5467 9.9688 19.0074 10.1049C21.0911 10.7436 22.6303 12.6912 22.6303 15.0052Z" stroke="#936DFF" stroke-width="1.57059" stroke-linecap="round" stroke-linejoin="round"/>
        <path d="M7.12208 5.92676L5.28972 10.3035C3.46784 11.0888 2.19043 12.9002 2.19043 15.0048V11.9369C2.19043 8.96323 4.30549 6.4817 7.12208 5.92676Z" stroke="#936DFF" stroke-width="1.57059" stroke-linecap="round" stroke-linejoin="round"/>
        <path d="M22.6277 11.9358V15.0036C22.6277 12.7001 21.099 10.7421 19.0049 10.1139C19.5494 8.7527 19.7064 7.6847 19.4446 6.7947C19.4237 6.70046 19.3923 6.60623 19.3504 6.52246C21.2979 7.52764 22.6277 9.59034 22.6277 11.9358Z" stroke="#936DFF" stroke-width="1.57059" stroke-linecap="round" stroke-linejoin="round"/>
    </g>
    <g>
        <path d="M17.8963 22.2331H7.42572C4.28455 22.2331 2.19043 20.6625 2.19043 16.9978V9.6684C2.19043 6.00369 4.28455 4.43311 7.42572 4.43311H17.8963C21.0375 4.43311 23.1316 6.00369 23.1316 9.6684V16.9978C23.1316 20.6625 21.0375 22.2331 17.8963 22.2331Z" stroke="#22C55E" stroke-width="1.57059" stroke-miterlimit="10" stroke-linecap="round" stroke-linejoin="round"/>
        <path d="M12.6617 16.4738C14.3965 16.4738 15.8029 15.0674 15.8029 13.3326C15.8029 11.5978 14.3965 10.1914 12.6617 10.1914C10.9269 10.1914 9.52051 11.5978 9.52051 13.3326C9.52051 15.0674 10.9269 16.4738 12.6617 16.4738Z" stroke="#22C55E" stroke-width="1.57059" stroke-miterlimit="10" stroke-linecap="round" stroke-linejoin="round"/>
        <path d="M5.85645 10.7153V15.9506" stroke="#22C55E" stroke-width="1.57059" stroke-miterlimit="10" stroke-linecap="round" stroke-linejoin="round"/>
        <path d="M19.4668 10.7153V15.9506" stroke="#22C55E" stroke-width="1.57059" stroke-miterlimit="10" stroke-linecap="round" stroke-linejoin="round"/>
    </g>
    <g id="quotes">
        <path fill-rule="evenodd" clip-rule="evenodd" d="M36.797 44.2511C33.6916 38.2474 32.139 31.7262 32.139 24.6874C32.139 17.5452 34.0281 11.645 37.8062 6.98701C41.5844 2.32901 47.4586 0 55.429 0V9.78182C52.6342 9.78182 50.5898 10.4029 49.2959 11.645C48.002 12.8872 47.3551 15.2679 47.3551 18.7873V20.34H58.6896V44.2511H36.797ZM4.65799 44.2513C1.55267 38.2477 0 31.7264 0 24.6877C0 17.5454 1.88908 11.6452 5.66723 6.98723C9.44538 2.32923 15.3196 0.000219731 23.29 0.000219731V9.78204C20.4952 9.78204 18.4508 10.4031 17.157 11.6452C15.8631 12.8874 15.2161 15.2681 15.2161 18.7875V20.3402H26.5506V44.2513H4.65799Z" fill="#DADADA"/>
    </g>
    <g id="line1">
        <path opacity="0.2" d="M293.93 403.849C298.051 379.676 304.063 356.939 302.517 330.873C301.412 312.256 296.799 293.933 287.934 276.448C271.404 243.849 249.799 212.77 224.116 188.005C197.872 162.7 172.108 135.165 142.474 115.731C114.923 97.6611 85.5377 82.731 58.6759 63.0949C13.6686 30.1943 -18.1922 -22.299 -45.2356 -72.6793C-59.5427 -99.3323 -73.7326 -126.167 -87.4301 -153.136C-96.0256 -170.06 -103.247 -188.208 -113.815 -203.936" stroke="#A596FF" stroke-width="2.8563" stroke-linecap="round"/>
    </g>
    <g id="line2">
        <path opacity="0.2" d="M178.147 -56.5574C161.451 -54.9987 143.318 -54.7542 127.05 -51.109C111.13 -47.5421 94.3657 -41.0712 80.3596 -34.2368C54.549 -21.6423 41.3297 -4.01075 29.3367 17.0245C9.5446 51.7387 2.37897 87.7435 2.06965 125.464C1.86488 150.435 2.82483 175.152 5.43134 200.042C6.22713 207.641 5.82939 216.328 11.4077 222.89" stroke="#A596FF" stroke-width="3.16355" stroke-linecap="round"/>
    </g>
</svg>