<svg width="20" height="19" viewBox="0 0 20 19" fill="none" xmlns="http://www.w3.org/2000/svg">
<path d="M12.1956 15.1993C13.4075 15.8626 14.4733 15.0586 14.2415 13.6517L13.8253 11.1254L15.5882 9.33633C16.5687 8.34132 16.1636 7.03754 14.8067 6.83227L12.3705 6.46369L11.2863 4.17661C10.6791 2.8955 9.36048 2.88172 8.75206 4.16525L7.66253 6.46369L5.22626 6.83227C3.87132 7.03725 3.46296 8.33991 4.44479 9.33633L6.20769 11.1254L5.79152 13.6517C5.56007 15.0566 6.62383 15.8635 7.83744 15.1993L10.0165 14.0065L12.1956 15.1993Z" fill="#6C5FBC"/>
<mask id="mask0_1_11065" style="mask-type:luminance" maskUnits="userSpaceOnUse" x="3" y="3" width="14" height="13">
<path d="M12.1956 15.1993C13.4075 15.8626 14.4733 15.0586 14.2415 13.6517L13.8253 11.1254L15.5882 9.33633C16.5687 8.34132 16.1636 7.03754 14.8067 6.83227L12.3705 6.46369L11.2863 4.17661C10.6791 2.8955 9.36048 2.88172 8.75206 4.16525L7.66253 6.46369L5.22626 6.83227C3.87132 7.03725 3.46296 8.33991 4.44479 9.33633L6.20769 11.1254L5.79152 13.6517C5.56007 15.0566 6.62383 15.8635 7.83744 15.1993L10.0165 14.0065L12.1956 15.1993Z" fill="white"/>
</mask>
<g mask="url(#mask0_1_11065)">
</g>
</svg>
